<svg width="85" height="85" viewBox="0 0 85 85" fill="none" xmlns="http://www.w3.org/2000/svg">
<path d="M10.6243 74.3748C8.67643 74.3748 7.00949 73.6818 5.62352 72.2959C4.23754 70.9099 3.54338 69.2418 3.54102 67.2915V24.7915C3.54102 22.8436 4.23518 21.1766 5.62352 19.7907C7.01185 18.4047 8.67879 17.7105 10.6243 17.7082H21.7806L28.3327 10.6248H49.5827V17.7082H31.4316L24.9681 24.7915H10.6243V67.2915H67.291V35.4165H74.3744V67.2915C74.3744 69.2394 73.6814 70.9075 72.2954 72.2959C70.9094 73.6842 69.2413 74.3772 67.291 74.3748H10.6243ZM67.291 24.7915V17.7082H60.2077V10.6248H67.291V3.5415H74.3744V10.6248H81.4577V17.7082H74.3744V24.7915H67.291ZM38.9577 61.979C43.3848 61.979 47.1484 60.4301 50.2485 57.3323C53.3487 54.2346 54.8975 50.4709 54.8952 46.0415C54.8952 41.6144 53.3463 37.852 50.2485 34.7542C47.1507 31.6564 43.3871 30.1064 38.9577 30.104C34.5306 30.104 30.7682 31.6541 27.6704 34.7542C24.5726 37.8543 23.0225 41.6168 23.0202 46.0415C23.0202 50.4686 24.5703 54.2322 27.6704 57.3323C30.7705 60.4325 34.533 61.9814 38.9577 61.979ZM38.9577 54.8957C36.4785 54.8957 34.383 54.0398 32.6712 52.328C30.9594 50.6162 30.1035 48.5207 30.1035 46.0415C30.1035 43.5623 30.9594 41.4669 32.6712 39.755C34.383 38.0432 36.4785 37.1873 38.9577 37.1873C41.4369 37.1873 43.5323 38.0432 45.2441 39.755C46.9559 41.4669 47.8119 43.5623 47.8119 46.0415C47.8119 48.5207 46.9559 50.6162 45.2441 52.328C43.5323 54.0398 41.4369 54.8957 38.9577 54.8957Z" fill="white"/>
</svg>
