<svg width="12" height="9" viewBox="0 0 12 9" fill="none" xmlns="http://www.w3.org/2000/svg">
<path d="M3.97853 8.8335C3.87534 8.8336 3.77314 8.81325 3.67781 8.77361C3.58248 8.73397 3.49589 8.67582 3.42303 8.60251L0.405885 5.57522C0.330841 5.5025 0.270984 5.41551 0.229805 5.31933C0.188627 5.22315 0.166952 5.1197 0.166045 5.01502C0.165139 4.91034 0.185018 4.80653 0.224525 4.70965C0.264031 4.61276 0.322373 4.52474 0.396146 4.45072C0.469919 4.3767 0.557645 4.31816 0.654207 4.27852C0.750768 4.23888 0.854231 4.21894 0.958557 4.21984C1.06288 4.22075 1.16599 4.2425 1.26185 4.28382C1.35771 4.32514 1.4444 4.38519 1.51688 4.46049L3.97853 6.93041L9.83445 1.0548C9.98264 0.911191 10.1811 0.83173 10.3871 0.833526C10.5931 0.835322 10.7902 0.918233 10.9359 1.0644C11.0816 1.21057 11.1642 1.4083 11.166 1.615C11.1678 1.8217 11.0886 2.02085 10.9455 2.16953L4.53403 8.60251C4.46116 8.67582 4.37458 8.73397 4.27925 8.77361C4.18392 8.81325 4.08172 8.8336 3.97853 8.8335Z" fill="white"/>
</svg>
