<svg width="17" height="17" viewBox="0 0 17 17" fill="none" xmlns="http://www.w3.org/2000/svg">
<path d="M4.12448 2.5726L8.49914 6.94727L12.8511 2.59527C12.9473 2.49295 13.0631 2.4111 13.1916 2.35462C13.3201 2.29814 13.4588 2.2682 13.5991 2.2666C13.8997 2.2666 14.188 2.38601 14.4005 2.59855C14.6131 2.81109 14.7325 3.09936 14.7325 3.39993C14.7351 3.53888 14.7093 3.67691 14.6567 3.80553C14.6041 3.93416 14.5257 4.05068 14.4265 4.14794L10.0178 8.49993L14.4265 12.9086C14.6133 13.0913 14.7228 13.3388 14.7325 13.5999C14.7325 13.9005 14.6131 14.1888 14.4005 14.4013C14.188 14.6139 13.8997 14.7333 13.5991 14.7333C13.4547 14.7393 13.3106 14.7152 13.176 14.6625C13.0414 14.6098 12.9192 14.5297 12.8171 14.4273L8.49914 10.0526L4.13581 14.4159C4.04005 14.5148 3.92565 14.5938 3.79921 14.6483C3.67277 14.7027 3.5368 14.7316 3.39914 14.7333C3.09856 14.7333 2.8103 14.6139 2.59776 14.4013C2.38521 14.1888 2.26581 13.9005 2.26581 13.5999C2.26317 13.461 2.28895 13.323 2.34157 13.1943C2.39419 13.0657 2.47254 12.9492 2.57181 12.8519L6.98048 8.49993L2.57181 4.09127C2.38502 3.90853 2.27549 3.66107 2.26581 3.39993C2.26581 3.09936 2.38521 2.81109 2.59776 2.59855C2.8103 2.38601 3.09856 2.2666 3.39914 2.2666C3.67114 2.27 3.93181 2.37993 4.12448 2.5726Z" fill="#182F53"/>
</svg>
