<svg width="10" height="10" viewBox="0 0 10 10" fill="none" xmlns="http://www.w3.org/2000/svg">
<path d="M4.448 9.472C4.34133 9.472 4.25067 9.43467 4.176 9.36C4.10133 9.28533 4.064 9.19467 4.064 9.088V5.968H0.992C0.885333 5.968 0.794667 5.93067 0.72 5.856C0.645333 5.78133 0.608 5.69067 0.608 5.584V4.736C0.608 4.61867 0.645333 4.528 0.72 4.464C0.794667 4.38933 0.885333 4.352 0.992 4.352H4.064V1.312C4.064 1.20533 4.10133 1.11467 4.176 1.04C4.25067 0.965333 4.34133 0.927999 4.448 0.927999H5.376C5.49333 0.927999 5.584 0.965333 5.648 1.04C5.72267 1.11467 5.76 1.20533 5.76 1.312V4.352H8.832C8.93867 4.352 9.02933 4.38933 9.104 4.464C9.17867 4.528 9.216 4.61867 9.216 4.736V5.584C9.216 5.69067 9.17867 5.78133 9.104 5.856C9.02933 5.93067 8.93867 5.968 8.832 5.968H5.76V9.088C5.76 9.19467 5.72267 9.28533 5.648 9.36C5.584 9.43467 5.49333 9.472 5.376 9.472H4.448Z" fill="#182F53"/>
</svg>
