<svg width="150" height="28" viewBox="0 0 150 28" fill="none" xmlns="http://www.w3.org/2000/svg">
<path d="M11.8103 0.450087L0.227581 5.34194C-0.146056 5.50561 -0.0339673 6.03298 0.377033 6.03298L13.0433 3.55978C13.7345 3.43249 14.4631 3.43249 15.1544 3.55978L27.8393 6.03298C28.2503 6.03298 28.3624 5.48742 27.9888 5.34194L16.406 0.450087C14.9115 -0.150029 13.2675 -0.150029 11.8103 0.450087Z" fill="#182F53"/>
<path fill-rule="evenodd" clip-rule="evenodd" d="M27.3911 11.5975V19.5445C27.3911 22.0358 25.2988 24.0726 22.7394 24.0726H22.1602C21.824 25.2001 22.4965 26.5458 23.0009 27.3096C23.3372 27.8006 22.8701 28.0734 22.5152 27.9825C21.5251 27.746 19.9184 27.0004 18.6294 26.1457C17.6953 25.5274 17.1348 24.7455 16.7986 24.0726H5.42131C2.8619 24.0726 0.769531 22.0358 0.769531 19.5445V11.5975C0.769531 9.10608 2.8619 7.06934 5.42131 7.06934H22.7394C25.2988 7.08752 27.3911 9.12427 27.3911 11.5975ZM11.4553 19.2353H7.10248C6.24312 19.2353 5.5332 18.5443 5.5332 17.7077V13.4706C5.5332 12.634 6.24312 11.943 7.10248 11.943H11.4553C12.3147 11.943 13.0246 12.634 13.0246 13.4706V17.7077C13.0246 18.5443 12.3147 19.2353 11.4553 19.2353ZM16.7423 19.2353H21.0952C21.9732 19.2353 22.6644 18.5443 22.6644 17.7077V13.4706C22.6644 12.634 21.9545 11.943 21.0952 11.943H16.7423C15.8829 11.943 15.173 12.634 15.173 13.4706V17.7077C15.173 18.5443 15.8829 19.2353 16.7423 19.2353Z" fill="#182F53"/>
<path d="M42.1303 23.1635C40.972 22.6725 40.0006 22.0178 39.272 21.2177C39.1412 21.0722 39.0104 20.9267 38.8984 20.7812C38.0764 19.7446 38.4874 18.2353 39.7204 17.7261C40.5984 17.3624 41.6259 17.6533 42.1864 18.3989C42.4666 18.7626 42.8029 19.09 43.1952 19.3628C44.0172 19.9447 44.9513 20.2357 46.0535 20.2357C47.1557 20.2357 47.9964 20.0356 48.5942 19.6174C49.1734 19.1991 49.4723 18.5808 49.4723 17.7625C49.4723 16.8896 49.136 16.144 48.5008 15.5802C47.847 14.9983 46.7447 14.4345 45.1755 13.889C42.8402 13.0343 41.1589 12.0886 40.1127 11.0521C39.0665 10.0155 38.5434 8.74254 38.5434 7.21497C38.5434 6.14204 38.8423 5.17821 39.4215 4.3235C40.0006 3.46879 40.8413 2.81412 41.9248 2.32312C43.0084 1.8503 44.2974 1.5957 45.792 1.5957C47.5294 1.5957 49.0052 1.88667 50.2569 2.48679C50.7053 2.70501 51.135 2.9596 51.5273 3.26875C52.5922 4.08709 52.4801 5.66922 51.3405 6.37845C50.6306 6.8149 49.7151 6.76033 49.0613 6.23296C48.7997 6.01473 48.5195 5.83288 48.2206 5.6874C47.548 5.36006 46.7634 5.1964 45.8854 5.1964C44.9326 5.1964 44.204 5.37825 43.6622 5.76014C43.1205 6.12385 42.8589 6.65122 42.8589 7.32408C42.8589 8.01512 43.2139 8.61524 43.9238 9.10625C44.6337 9.61544 45.7172 10.161 47.2118 10.7247C49.5096 11.5794 51.2097 12.5978 52.3306 13.7253C53.4515 14.871 54.012 16.2531 54.012 17.8534C54.012 18.9627 53.6944 19.9811 53.0592 20.8903C52.424 21.7996 51.5086 22.527 50.313 23.0544C49.1173 23.5999 47.6975 23.8545 46.0722 23.8545C44.615 23.8909 43.3073 23.6545 42.1303 23.1635Z" fill="#182F53"/>
<path d="M56.9824 21.6176V3.88688C56.9824 2.83213 57.8605 1.99561 58.9253 1.99561C60.0089 1.99561 60.8683 2.85032 60.8683 3.88688V8.57869C60.8683 9.12425 61.3727 9.50615 61.9144 9.4334C61.9144 9.4334 61.9144 9.4334 61.9331 9.4334C62.3441 9.37885 62.7551 9.34248 63.2035 9.34248C65.0903 9.34248 66.6223 9.61526 67.7992 10.1608C68.9762 10.7064 69.8168 11.452 70.3399 12.3612C70.863 13.2887 71.1246 14.3434 71.1246 15.5619C71.1432 17.5804 71.1433 19.599 71.1433 21.6357C71.1433 22.6723 70.2652 23.527 69.2003 23.527C68.1168 23.527 67.2574 22.6723 67.2574 21.6176C67.2574 19.799 67.2574 17.9987 67.2388 16.1802C67.2201 14.9617 66.9212 14.107 66.342 13.6342C65.7629 13.1432 64.8475 12.9068 63.5584 12.9068C62.998 12.9068 62.4749 12.9432 61.9892 13.0159C61.821 13.0341 61.6716 13.0705 61.5221 13.1068C61.1298 13.1978 60.8683 13.5615 60.8683 13.9434V21.6357C60.8683 22.6905 59.9902 23.527 58.9253 23.527C57.8418 23.527 56.9824 22.6723 56.9824 21.6176Z" fill="#182F53"/>
<path d="M95.2436 23.2546C94.5711 22.8 94.0667 22.1999 93.7117 21.4361C93.3754 20.6723 93.2073 19.8176 93.2073 18.8901L93.1699 12.9617C93.1699 10.6704 93.1699 8.83365 93.1699 7.45156V3.88725C93.1699 2.85068 94.0293 2.01416 95.0942 2.01416C96.159 2.01416 97.0184 2.85068 97.0184 3.88725V18.2718C97.0184 18.7446 97.0558 19.1265 97.1492 19.4539C97.2426 19.763 97.392 20.0176 97.6162 20.1995C97.8404 20.3813 98.1019 20.4723 98.4382 20.4723H98.4569C99.1294 20.4723 99.7086 20.9451 99.8207 21.5816L99.9701 22.3453C100.12 23.1091 99.5404 23.8184 98.7558 23.8911C98.4569 23.9275 98.1206 23.9275 97.7657 23.9275C96.7569 23.9275 95.9162 23.7092 95.2436 23.2546Z" fill="#182F53"/>
<path d="M104.285 23.2546C103.612 22.8 103.108 22.1999 102.753 21.4361C102.416 20.6723 102.248 19.8176 102.248 18.8901L102.211 12.9617C102.211 10.6704 102.211 8.83365 102.211 7.45156V3.88725C102.211 2.85068 103.07 2.01416 104.135 2.01416C105.2 2.01416 106.059 2.85068 106.059 3.88725V18.2718C106.059 18.7446 106.097 19.1265 106.19 19.4539C106.284 19.763 106.433 20.0176 106.657 20.1995C106.881 20.3813 107.143 20.4723 107.479 20.4723H107.498C108.17 20.4723 108.75 20.9451 108.862 21.5816L109.011 22.3453C109.161 23.1091 108.581 23.8184 107.797 23.8911C107.498 23.9275 107.162 23.9275 106.807 23.9275C105.798 23.9275 104.957 23.7092 104.285 23.2546Z" fill="#182F53"/>
<path d="M132.662 11.8887V11.9068C132.662 11.9432 132.662 11.9614 132.643 11.9978C132.643 12.0705 132.625 12.1433 132.606 12.216L129.337 21.5996C128.982 22.6362 127.954 23.4 126.702 23.4909C126.628 23.4909 126.534 23.4909 126.46 23.4909C126.366 23.4909 126.291 23.4909 126.217 23.4909C125.002 23.4 124.012 22.6726 123.62 21.6905C123.62 21.6724 123.601 21.6542 123.601 21.636L123.508 21.2723C123.508 21.2723 123.508 21.2723 123.508 21.2541L122.817 18.7991C122.817 18.7991 122.817 18.7809 122.817 18.7627L122.611 17.6898C122.48 17.0533 121.528 17.0533 121.415 17.6898L121.21 18.7991L120.5 21.3268V21.345L120.425 21.5996C120.07 22.6362 119.043 23.4 117.791 23.4909C117.716 23.4909 117.623 23.4909 117.548 23.4909C117.455 23.4909 117.38 23.4909 117.305 23.4909C116.091 23.4 115.101 22.6726 114.709 21.6905L114.634 21.5087V21.4905L111.402 12.1796C111.402 12.1614 111.402 12.1433 111.383 12.1251C111.365 12.0705 111.365 12.016 111.346 11.9614C111.234 11.1976 111.607 10.452 112.224 10.0519C112.411 9.92465 112.616 9.83372 112.841 9.77916C112.897 9.76098 112.953 9.76099 113.009 9.7428C113.065 9.7428 113.121 9.72461 113.177 9.72461H113.476C113.606 9.72461 113.737 9.76098 113.868 9.79736C113.924 9.81554 113.98 9.83372 114.017 9.85191C114.167 9.90646 114.298 9.97921 114.428 10.0701C114.746 10.2702 114.989 10.5611 115.157 10.9067V10.9248C115.194 11.0158 115.232 11.1249 115.269 11.2158L116.932 17.1988L116.951 17.3079C117.1 17.9444 118.034 17.908 118.146 17.2715L118.165 17.1988L119.23 12.1796L119.342 11.6341C119.678 10.5975 120.612 9.83373 121.77 9.7428H122.219C123.358 9.83373 124.292 10.5793 124.629 11.6159L124.741 12.1614L125.843 17.1988C125.899 17.5261 126.179 17.6898 126.441 17.6898C126.702 17.6898 126.964 17.5443 127.039 17.2351V17.1988L128.72 11.1976C128.72 11.1794 128.72 11.1612 128.739 11.1431V11.1249C128.757 11.0703 128.776 11.034 128.795 10.9794C128.813 10.943 128.813 10.9067 128.832 10.8885C129.056 10.4157 129.449 10.0701 129.916 9.88828C129.99 9.8701 130.046 9.83372 130.121 9.81554C130.252 9.77917 130.383 9.76099 130.532 9.7428C130.7 9.72462 130.887 9.74279 131.074 9.77916C131.111 9.77916 131.149 9.79735 131.205 9.81554C131.317 9.85191 131.429 9.88828 131.541 9.94284L131.803 10.0883C132.083 10.2884 132.326 10.543 132.475 10.8339C132.625 11.1249 132.699 11.5068 132.662 11.8887Z" fill="#182F53"/>
<path d="M146.245 23.3817C145.124 23.8 144.003 24.0182 142.845 24.0182C141.276 24.0182 139.931 23.6909 138.81 23.0544C137.689 22.4179 136.848 21.5268 136.25 20.4175C135.652 19.3082 135.354 18.0716 135.354 16.6713C135.354 15.2347 135.652 13.9799 136.232 12.8888C136.811 11.7977 137.651 10.9248 138.754 10.3065C139.856 9.68818 141.164 9.36084 142.695 9.36084C144.209 9.36084 145.516 9.67 146.619 10.2883C147.721 10.9066 148.562 11.7795 149.141 12.8888C149.72 13.9981 150 15.2711 150 16.6713V16.6895C150 17.326 149.458 17.8534 148.804 17.8534H139.762C139.52 17.8534 139.314 18.0716 139.37 18.308C139.464 18.7081 139.632 19.0536 139.856 19.3628C140.173 19.781 140.584 20.1084 141.089 20.3266C141.593 20.5448 142.191 20.6721 142.845 20.6721C143.592 20.6721 144.283 20.5448 144.919 20.3084C145.105 20.2357 145.292 20.1447 145.46 20.0538C146.152 19.6901 147.011 19.8538 147.534 20.4357C148.281 21.254 148.057 22.5452 147.048 23.0362C146.805 23.1635 146.525 23.2726 146.245 23.3817ZM145.479 13.9617C145.18 13.5616 144.788 13.2525 144.283 13.0343C143.798 12.8161 143.256 12.7069 142.695 12.7069C142.116 12.7069 141.575 12.8161 141.089 13.0343C140.603 13.2525 140.192 13.5616 139.875 13.9617C139.65 14.2527 139.501 14.58 139.407 14.9256C139.351 15.1256 139.538 15.3256 139.744 15.3256H145.572C145.797 15.3256 145.965 15.1256 145.909 14.9256C145.834 14.58 145.685 14.2527 145.479 13.9617Z" fill="#182F53"/>
<path d="M89.2077 11.1248C89.189 10.9793 89.1703 10.8157 89.1143 10.6884C89.0022 10.3247 88.7593 10.0155 88.4791 9.79729C88.1428 9.5427 87.7318 9.39721 87.2835 9.39721C86.8351 9.39721 86.4054 9.5427 86.0878 9.79729C85.7703 10.0337 85.5274 10.3792 85.4153 10.7793C85.3779 10.8884 85.3593 11.0157 85.3406 11.1248L85.3592 11.4158C85.3592 11.3976 85.3406 11.3976 85.3406 11.3794C85.3032 11.343 85.2845 11.3067 85.2472 11.2521C84.9296 10.7975 84.7801 10.2519 83.7339 9.7791C82.9866 9.45176 82.2394 9.36084 81.5668 9.36084C80.147 9.36084 78.858 9.6518 77.737 10.2337C76.6161 10.8157 75.7381 11.6704 75.1216 12.7615C74.4864 13.8526 74.1875 15.1438 74.1875 16.6168C74.1875 17.9807 74.4864 19.2355 75.1029 20.3266C75.7194 21.4359 76.5788 22.3088 77.681 22.9453C78.7832 23.5818 80.091 23.8909 81.5668 23.8909C82.3515 23.8909 83.1174 23.7636 83.8834 23.509C84.612 23.2544 85.1351 22.9453 85.434 22.5452C85.4527 22.527 85.4527 22.527 85.4713 22.5088L85.4527 22.5997C85.5834 22.9453 85.8076 23.2544 86.0878 23.4727C86.1065 23.4908 86.1065 23.4908 86.1252 23.509C86.4428 23.7454 86.8538 23.8909 87.2835 23.8909C87.7131 23.8909 88.1242 23.7454 88.4418 23.509C88.4604 23.509 88.4791 23.4908 88.4791 23.4727C88.7967 23.2362 89.0396 22.8907 89.1516 22.4906C89.189 22.3633 89.2264 22.2179 89.2264 22.0724V11.1976C89.2264 11.1794 89.2264 11.1612 89.2077 11.1248ZM84.9296 18.6354C84.612 19.2173 84.1636 19.6719 83.6218 19.9629C83.0614 20.272 82.4636 20.4175 81.791 20.4175C81.1558 20.4175 80.5393 20.272 79.9789 19.9811C79.4184 19.6901 78.9701 19.2537 78.6151 18.6717C78.2788 18.0898 78.1107 17.3987 78.1107 16.5986C78.1107 15.7984 78.2788 15.1074 78.6151 14.5437C78.9514 13.9799 79.3997 13.5435 79.9789 13.2525C80.5393 12.9615 81.1372 12.8161 81.791 12.8161C82.4449 12.8161 83.0614 12.9615 83.6218 13.2707C84.1823 13.5798 84.612 14.0163 84.9296 14.58C85.2471 15.1438 85.4153 15.8166 85.4153 16.5986C85.4153 17.3806 85.2658 18.0534 84.9296 18.6354Z" fill="#182F53"/>
<path d="M85.4534 22.5269L85.4347 22.6178V22.5996C85.4347 22.5814 85.4347 22.5632 85.416 22.5632C85.4347 22.545 85.4347 22.5269 85.4534 22.5269Z" fill="#182F53"/>
<path d="M83.6035 9.76084C83.6035 9.76084 83.9211 9.85176 84.2761 10.0882C84.5563 10.2882 84.7618 10.3428 85.0794 10.3428C85.397 10.3246 85.6025 10.2155 85.864 9.99725C86.1629 9.74265 86.4245 9.59717 86.4245 9.59717L86.63 10.3791C86.63 10.3791 85.4904 12.0522 85.453 12.0522C85.4157 12.034 84.3695 11.6703 84.3695 11.6703L83.6035 9.76084Z" fill="#182F53"/>
<path d="M83.9023 23.5091C83.9023 23.5091 84.2199 23.4182 84.5749 23.1818C84.8551 22.9817 85.0606 22.9272 85.3782 22.9272C85.6958 22.9454 85.7519 23.2363 86.0134 23.4364C86.3123 23.691 86.7233 23.6728 86.7233 23.6728L86.9288 22.8908C86.9288 22.8908 85.7892 21.2178 85.7519 21.2178C85.7145 21.236 84.6683 21.5997 84.6683 21.5997L83.9023 23.5091Z" fill="#182F53"/>
<path d="M124.742 12.2161H119.193C119.193 12.1979 119.193 12.1797 119.193 12.1434C119.212 11.9615 119.249 11.7797 119.305 11.5978C119.642 10.5612 120.576 9.79747 121.734 9.70654C121.809 9.70654 121.884 9.70654 121.958 9.70654C122.033 9.70654 122.108 9.70654 122.182 9.70654C123.322 9.79747 124.256 10.5431 124.592 11.5796C124.648 11.7433 124.686 11.9251 124.705 12.1252C124.742 12.1616 124.742 12.1797 124.742 12.2161Z" fill="#182F53"/>
<path d="M120.501 20.9995C120.501 21.0177 120.501 21.0359 120.501 21.0723C120.501 21.1632 120.482 21.2541 120.445 21.345V21.3632L120.37 21.6178C120.015 22.6544 118.988 23.4182 117.736 23.5091C117.661 23.5091 117.568 23.5091 117.493 23.5091C117.4 23.5091 117.325 23.5091 117.25 23.5091C116.036 23.4182 115.046 22.6908 114.653 21.7087C114.653 21.6906 114.635 21.6724 114.635 21.636C114.616 21.5996 114.616 21.5633 114.597 21.5269V21.5087C114.56 21.3814 114.523 21.2359 114.523 21.1086C114.523 21.0723 114.523 21.0541 114.504 21.0177H120.501V20.9995Z" fill="#182F53"/>
<path d="M129.469 20.9996C129.469 21.0178 129.469 21.036 129.469 21.0724C129.469 21.1633 129.45 21.2542 129.413 21.3452V21.3633L129.338 21.5997C128.983 22.6363 127.955 23.4001 126.704 23.491C126.629 23.491 126.536 23.491 126.461 23.491C126.367 23.491 126.293 23.491 126.218 23.491C125.004 23.4001 124.014 22.6727 123.621 21.6907C123.621 21.6725 123.603 21.6543 123.603 21.6361V21.6179C123.584 21.5816 123.584 21.5452 123.565 21.5088V21.4906C123.547 21.4179 123.528 21.3633 123.509 21.2906C123.509 21.2906 123.509 21.2906 123.509 21.2724C123.49 21.1997 123.49 21.1451 123.472 21.0724C123.472 21.036 123.472 21.0178 123.453 20.9814H129.469V20.9996Z" fill="#182F53"/>
</svg>
